<svg width="96" height="96" viewBox="0 0 96 96" fill="none" xmlns="http://www.w3.org/2000/svg">
<path d="M48 16C48 16 22.9822 15.9999 16.7422 17.6719C13.2982 18.5919 10.5919 21.3022 9.67188 24.7422C7.99987 30.9822 8 48 8 48C8 48 7.99987 65.0178 9.67188 71.2578C10.5919 74.7018 13.3022 77.4081 16.7422 78.3281C22.9822 80.0001 48 80 48 80C48 80 73.0178 80.0001 79.2578 78.3281C82.6978 77.4081 85.4081 74.6978 86.3281 71.2578C88.0001 65.0178 88 48 88 48C88 48 88.0001 30.9822 86.3281 24.7422C85.4081 21.3022 82.6978 18.5919 79.2578 17.6719C73.0178 15.9999 48 16 48 16ZM48 24C59.528 24 73.9635 24.5344 77.1875 25.3984C77.8635 25.5784 78.4176 26.1325 78.6016 26.8125C79.5656 30.4045 80 41.368 80 48C80 54.632 79.5656 65.5915 78.6016 69.1875C78.4216 69.8635 77.8675 70.4176 77.1875 70.6016C73.9675 71.4656 59.528 72 48 72C36.476 72 22.0405 71.4656 18.8125 70.6016C18.1365 70.4216 17.5824 69.8675 17.3984 69.1875C16.4344 65.5955 16 54.632 16 48C16 41.368 16.4344 30.4047 17.3984 26.8047C17.5784 26.1327 18.1325 25.5784 18.8125 25.3984C22.0325 24.5344 36.472 24 48 24ZM40 34.1406V61.8594L64 48L40 34.1406Z" fill="black"/>
</svg>
